<svg width="211" height="154" viewBox="0 0 211 154" fill="none" xmlns="http://www.w3.org/2000/svg">
<g filter="url(#filter0_d_46_2)">
<rect x="4" y="0.0112305" width="109.99" height="107.035" rx="14" fill="white"/>
<rect x="4.50005" y="0.51118" width="108.99" height="106.035" rx="13.5" stroke="black"/>
</g>
<path d="M51.2339 41.8188L58.9068 63.2051L59.2051 63.2035L66.6456 41.7352L69.8771 41.7177L60.6687 67.2226L57.4869 67.2398L48.0024 41.8364L51.2339 41.8188ZM72.3373 67.3582C71.7241 67.3615 71.1968 67.1448 70.7553 66.708C70.3137 66.2712 70.0913 65.7463 70.088 65.1331C70.0847 64.52 70.3014 63.9926 70.7381 63.5511C71.1749 63.1095 71.6999 62.8871 72.313 62.8838C72.9262 62.8805 73.4535 63.0972 73.8951 63.534C74.3366 63.9707 74.559 64.4957 74.5623 65.1088C74.5645 65.5148 74.463 65.8883 74.2577 66.2291C74.0607 66.5699 73.7929 66.8448 73.4543 67.0538C73.1239 67.2545 72.7516 67.3559 72.3373 67.3582Z" fill="#1F222A"/>
<path d="M51.2339 41.8188L52.1751 41.4811L51.9361 40.815L51.2285 40.8189L51.2339 41.8188ZM58.9068 63.2051L57.9656 63.5428L58.2045 64.2089L58.9122 64.2051L58.9068 63.2051ZM59.2051 63.2035L59.2105 64.2035L59.9182 64.1996L60.15 63.5309L59.2051 63.2035ZM66.6456 41.7352L66.6402 40.7353L65.9325 40.7391L65.7007 41.4078L66.6456 41.7352ZM69.8771 41.7177L70.8176 42.0573L71.3041 40.71L69.8717 40.7177L69.8771 41.7177ZM60.6687 67.2226L60.6741 68.2226L61.3722 68.2188L61.6093 67.5622L60.6687 67.2226ZM57.4869 67.2398L56.5501 67.5896L56.7943 68.2436L57.4923 68.2398L57.4869 67.2398ZM48.0024 41.8364L47.997 40.8364L46.5645 40.8441L47.0656 42.1861L48.0024 41.8364ZM50.2926 42.1565L57.9656 63.5428L59.8481 62.8674L52.1751 41.4811L50.2926 42.1565ZM58.9122 64.2051L59.2105 64.2035L59.1997 62.2035L58.9014 62.2051L58.9122 64.2051ZM60.15 63.5309L67.5904 42.0627L65.7007 41.4078L58.2602 62.876L60.15 63.5309ZM66.651 42.7352L69.8825 42.7177L69.8717 40.7177L66.6402 40.7353L66.651 42.7352ZM68.9365 41.3781L59.7281 66.883L61.6093 67.5622L70.8176 42.0573L68.9365 41.3781ZM60.6633 66.2226L57.4815 66.2399L57.4923 68.2398L60.6741 68.2226L60.6633 66.2226ZM58.4237 66.8901L48.9392 41.4866L47.0656 42.1861L56.5501 67.5896L58.4237 66.8901ZM48.0078 42.8363L51.2393 42.8188L51.2285 40.8189L47.997 40.8364L48.0078 42.8363ZM70.7553 66.708L71.4585 65.9971L70.7553 66.708ZM70.7381 63.5511L70.0272 62.8478L70.7381 63.5511ZM73.8951 63.534L74.5983 62.823L74.5983 62.823L73.8951 63.534ZM74.2577 66.2291L73.4011 65.7132L73.3964 65.7208L73.3919 65.7286L74.2577 66.2291ZM73.4543 67.0538L73.9734 67.9085L73.9795 67.9048L73.4543 67.0538ZM72.3319 66.3582C71.9877 66.36 71.7142 66.25 71.4585 65.9971L70.052 67.4189C70.6794 68.0395 71.4605 68.3629 72.3427 68.3581L72.3319 66.3582ZM71.4585 65.9971C71.2028 65.7441 71.0898 65.4718 71.088 65.1277L69.088 65.1385C69.0928 66.0207 69.4246 66.7983 70.052 67.4189L71.4585 65.9971ZM71.088 65.1277C71.0861 64.7836 71.1961 64.5101 71.4491 64.2543L70.0272 62.8478C69.4066 63.4752 69.0832 64.2564 69.088 65.1385L71.088 65.1277ZM71.4491 64.2543C71.702 63.9986 71.9743 63.8856 72.3184 63.8838L72.3076 61.8838C71.4254 61.8886 70.6478 62.2205 70.0272 62.8478L71.4491 64.2543ZM72.3184 63.8838C72.6626 63.8819 72.9361 63.9919 73.1918 64.2449L74.5983 62.823C73.971 62.2024 73.1898 61.879 72.3076 61.8838L72.3184 63.8838ZM73.1918 64.2449C73.4475 64.4978 73.5605 64.7701 73.5624 65.1143L75.5623 65.1034C75.5575 64.2212 75.2257 63.4436 74.5983 62.823L73.1918 64.2449ZM73.5624 65.1143C73.5636 65.3406 73.5096 65.533 73.4011 65.7132L75.1143 66.7451C75.4164 66.2436 75.5655 65.6891 75.5623 65.1034L73.5624 65.1143ZM73.3919 65.7286C73.2786 65.9246 73.1285 66.0797 72.929 66.2028L73.9795 67.9048C74.4572 67.6099 74.8427 67.2152 75.1234 66.7296L73.3919 65.7286ZM72.9351 66.1991C72.7708 66.2989 72.5784 66.3568 72.3319 66.3582L72.3427 68.3581C72.9247 68.355 73.477 68.21 73.9734 67.9085L72.9351 66.1991Z" fill="black"/>
<g filter="url(#filter1_d_46_2)">
<rect x="90.5001" y="31.5112" width="108.99" height="106.035" rx="13.5" fill="white" stroke="black"/>
<path d="M150.119 79.0446C149.963 77.786 149.353 76.8115 148.288 76.1213C147.224 75.431 145.921 75.0901 144.38 75.0984C143.253 75.1045 142.268 75.2922 141.425 75.6613C140.59 76.0304 139.938 76.5353 139.47 77.1759C139.009 77.8164 138.781 78.5427 138.785 79.3547C138.789 80.0341 138.954 80.6174 139.28 81.1045C139.614 81.5833 140.038 81.9829 140.554 82.3032C141.069 82.6153 141.609 82.8734 142.174 83.0775C142.738 83.2733 143.257 83.432 143.73 83.5538L146.319 84.2358C146.983 84.4062 147.722 84.6425 148.535 84.9446C149.357 85.2468 150.142 85.6609 150.891 86.1872C151.648 86.7051 152.273 87.3729 152.766 88.1905C153.26 89.0082 153.51 90.0136 153.516 91.2068C153.523 92.5822 153.17 93.8271 152.455 94.9413C151.748 96.0554 150.709 96.9435 149.337 97.6056C147.974 98.2676 146.314 98.6039 144.359 98.6145C142.536 98.6244 140.956 98.3388 139.618 97.7577C138.29 97.1766 137.241 96.362 136.473 95.3138C135.713 94.2656 135.28 93.0458 135.173 91.6543L138.355 91.637C138.443 92.5977 138.77 93.3914 139.337 94.0181C139.912 94.6364 140.636 95.0965 141.507 95.3984C142.387 95.6919 143.333 95.8359 144.343 95.8304C145.52 95.8241 146.575 95.6278 147.51 95.2415C148.444 94.847 149.183 94.3044 149.726 93.6137C150.269 92.9147 150.538 92.1012 150.533 91.1732C150.528 90.3281 150.288 89.6416 149.813 89.1139C149.338 88.5862 148.714 88.1587 147.942 87.8314C147.169 87.5042 146.335 87.2187 145.439 86.9749L142.302 86.0971C140.31 85.5361 138.732 84.7285 137.566 83.6742C136.4 82.6199 135.812 81.2352 135.803 79.52C135.795 78.0948 136.174 76.8499 136.939 75.7851C137.712 74.712 138.751 73.8777 140.057 73.2823C141.372 72.6786 142.841 72.3723 144.465 72.3635C146.105 72.3546 147.565 72.6409 148.845 73.2223C150.124 73.7953 151.139 74.5853 151.89 75.5921C152.65 76.5989 153.054 77.7444 153.102 79.0284L150.119 79.0446ZM160.362 98.2791C159.749 98.2824 159.222 98.0657 158.78 97.6289C158.339 97.1922 158.116 96.6672 158.113 96.0541C158.11 95.4409 158.327 94.9136 158.763 94.472C159.2 94.0305 159.725 93.8081 160.338 93.8047C160.951 93.8014 161.479 94.0181 161.92 94.4549C162.362 94.8917 162.584 95.4166 162.587 96.0298C162.59 96.4358 162.488 96.8092 162.283 97.1501C162.086 97.4909 161.818 97.7658 161.479 97.9748C161.149 98.1754 160.777 98.2769 160.362 98.2791Z" fill="#1F222A"/>
<path d="M150.119 79.0446L149.127 79.1676L149.236 80.0494L150.124 80.0446L150.119 79.0446ZM148.288 76.1213L147.744 76.9603L147.744 76.9603L148.288 76.1213ZM141.425 75.6613L141.024 74.7453L141.021 74.7467L141.425 75.6613ZM139.47 77.1759L138.663 76.5852L138.658 76.5921L139.47 77.1759ZM139.28 81.1045L138.448 81.6605L138.454 81.6686L138.459 81.6767L139.28 81.1045ZM140.554 82.3032L140.026 83.1526L140.036 83.1586L140.554 82.3032ZM142.174 83.0775L141.834 84.018L141.846 84.0223L142.174 83.0775ZM143.73 83.5538L143.985 82.5867L143.979 82.5853L143.73 83.5538ZM146.319 84.2358L146.064 85.2028L146.07 85.2044L146.319 84.2358ZM148.535 84.9446L148.187 85.8821L148.19 85.8832L148.535 84.9446ZM150.891 86.1872L150.316 87.0053L150.326 87.0125L150.891 86.1872ZM152.766 88.1905L153.623 87.674L153.623 87.674L152.766 88.1905ZM152.455 94.9413L151.613 94.4013L151.61 94.4057L152.455 94.9413ZM149.337 97.6056L148.903 96.705L148.9 96.706L149.337 97.6056ZM139.618 97.7577L139.218 98.674L139.22 98.6749L139.618 97.7577ZM136.473 95.3138L135.663 95.9007L135.666 95.9049L136.473 95.3138ZM135.173 91.6543L135.168 90.6543L134.094 90.6601L134.176 91.7309L135.173 91.6543ZM138.355 91.637L139.351 91.5457L139.267 90.6321L138.349 90.637L138.355 91.637ZM139.337 94.0181L138.595 94.689L138.605 94.6991L139.337 94.0181ZM141.507 95.3984L141.18 96.3434L141.191 96.347L141.507 95.3984ZM147.51 95.2415L147.892 96.1657L147.899 96.1628L147.51 95.2415ZM149.726 93.6137L150.512 94.2319L150.515 94.2273L149.726 93.6137ZM149.813 89.1139L150.556 88.4448L149.813 89.1139ZM147.942 87.8314L147.552 88.7522L147.552 88.7522L147.942 87.8314ZM145.439 86.9749L145.169 87.938L145.177 87.9399L145.439 86.9749ZM142.302 86.0971L142.031 87.0596L142.033 87.0601L142.302 86.0971ZM137.566 83.6742L136.895 84.4159L137.566 83.6742ZM136.939 75.7851L136.127 75.2006L136.127 75.2017L136.939 75.7851ZM140.057 73.2823L140.472 74.1922L140.475 74.191L140.057 73.2823ZM148.845 73.2223L148.431 74.1327L148.436 74.1348L148.845 73.2223ZM151.89 75.5921L151.089 76.1901L151.092 76.1944L151.89 75.5921ZM153.102 79.0284L153.107 80.0284L154.14 80.0228L154.101 78.9908L153.102 79.0284ZM151.111 78.9216C150.919 77.3697 150.145 76.1332 148.833 75.2823L147.744 76.9603C148.561 77.4898 149.007 78.2022 149.127 79.1676L151.111 78.9216ZM148.833 75.2823C147.572 74.465 146.069 74.0892 144.375 74.0984L144.386 76.0984C145.774 76.0909 146.876 76.397 147.744 76.9603L148.833 75.2823ZM144.375 74.0984C143.141 74.1051 142.017 74.3107 141.024 74.7453L141.826 76.5774C142.52 76.2736 143.365 76.1039 144.386 76.0984L144.375 74.0984ZM141.021 74.7467C140.05 75.1759 139.25 75.7832 138.663 76.5852L140.276 77.7665C140.627 77.2873 141.13 76.885 141.829 76.5759L141.021 74.7467ZM138.658 76.5921C138.07 77.4095 137.78 78.3434 137.785 79.3601L139.785 79.3492C139.782 78.7419 139.948 78.2233 140.281 77.7596L138.658 76.5921ZM137.785 79.3601C137.79 80.2036 137.997 80.9856 138.448 81.6605L140.111 80.5486C139.91 80.2492 139.788 79.8646 139.785 79.3492L137.785 79.3601ZM138.459 81.6767C138.874 82.2711 139.4 82.7635 140.026 83.1526L141.082 81.4539C140.677 81.2022 140.353 80.8954 140.1 80.5323L138.459 81.6767ZM140.036 83.1586C140.607 83.5047 141.207 83.7913 141.834 84.0179L142.514 82.137C142.011 81.9554 141.531 81.7259 141.072 81.4478L140.036 83.1586ZM141.846 84.0223C142.431 84.2251 142.976 84.3924 143.481 84.5222L143.979 82.5853C143.538 82.4717 143.046 82.3214 142.501 82.1327L141.846 84.0223ZM143.475 84.5208L146.064 85.2028L146.574 83.2687L143.985 82.5868L143.475 84.5208ZM146.07 85.2044C146.693 85.3642 147.398 85.589 148.187 85.8821L148.883 84.0072C148.045 83.6959 147.273 83.4481 146.568 83.2672L146.07 85.2044ZM148.19 85.8832C148.927 86.154 149.635 86.5268 150.316 87.0053L151.466 85.3691C150.65 84.7951 149.787 84.3395 148.88 84.006L148.19 85.8832ZM150.326 87.0125C150.96 87.4462 151.488 88.0069 151.91 88.7071L153.623 87.674C153.058 86.7389 152.336 85.964 151.456 85.3619L150.326 87.0125ZM151.91 88.7071C152.29 89.3363 152.51 90.1547 152.516 91.2122L154.516 91.2013C154.509 89.8725 154.23 88.6801 153.623 87.674L151.91 88.7071ZM152.516 91.2122C152.522 92.4023 152.22 93.4563 151.613 94.4013L153.297 95.4813C154.12 94.1978 154.524 92.7621 154.516 91.2013L152.516 91.2122ZM151.61 94.4057C151.018 95.3392 150.133 96.1112 148.903 96.705L149.772 98.5062C151.285 97.7759 152.478 96.7716 153.299 95.4768L151.61 94.4057ZM148.9 96.706C147.704 97.2866 146.201 97.6045 144.353 97.6145L144.364 99.6145C146.427 99.6033 148.243 99.2485 149.774 98.5052L148.9 96.706ZM144.353 97.6145C142.636 97.6238 141.199 97.3543 140.017 96.8406L139.22 98.6749C140.712 99.3233 142.436 99.6249 144.364 99.6145L144.353 97.6145ZM140.019 96.8415C138.833 96.3227 137.932 95.6126 137.28 94.7228L135.666 95.9049C136.55 97.1114 137.746 98.0306 139.218 98.674L140.019 96.8415ZM137.283 94.727C136.64 93.8399 136.264 92.7999 136.17 91.5776L134.176 91.7309C134.296 93.2916 134.787 94.6913 135.663 95.9007L137.283 94.727ZM135.178 92.6543L138.36 92.637L138.349 90.637L135.168 90.6543L135.178 92.6543ZM137.359 91.7283C137.464 92.8727 137.863 93.8794 138.596 94.6889L140.079 93.3473C139.677 92.9034 139.422 92.3227 139.351 91.5457L137.359 91.7283ZM138.605 94.6991C139.301 95.4481 140.168 95.993 141.18 96.3433L141.835 94.4534C141.103 94.2 140.523 93.8248 140.069 93.337L138.605 94.6991ZM141.191 96.347C142.183 96.6781 143.238 96.8365 144.349 96.8304L144.338 94.8305C143.427 94.8354 142.591 94.7057 141.824 94.4498L141.191 96.347ZM144.349 96.8304C145.634 96.8235 146.82 96.6087 147.892 96.1657L147.128 94.3174C146.331 94.6468 145.406 94.8247 144.338 94.8305L144.349 96.8304ZM147.899 96.1628C148.965 95.7127 149.849 95.0748 150.512 94.2319L148.94 92.9956C148.516 93.534 147.923 93.9814 147.121 94.3203L147.899 96.1628ZM150.515 94.2273C151.203 93.3424 151.539 92.3082 151.533 91.1678L149.533 91.1787C149.537 91.8943 149.335 92.4871 148.936 93.0002L150.515 94.2273ZM151.533 91.1678C151.527 90.1266 151.226 89.1883 150.556 88.4448L149.07 89.783C149.351 90.095 149.529 90.5296 149.533 91.1787L151.533 91.1678ZM150.556 88.4448C149.967 87.7904 149.215 87.2847 148.332 86.9106L147.552 88.7522C148.214 89.0326 148.709 89.3819 149.07 89.783L150.556 88.4448ZM148.332 86.9106C147.514 86.564 146.637 86.2643 145.701 86.01L145.177 87.9399C146.034 88.173 146.825 88.4443 147.552 88.7522L148.332 86.9106ZM145.708 86.0119L142.572 85.1341L142.033 87.0601L145.169 87.9379L145.708 86.0119ZM142.573 85.1345C140.685 84.6027 139.258 83.856 138.237 82.9325L136.895 84.4159C138.206 85.601 139.936 86.4696 142.031 87.0596L142.573 85.1345ZM138.237 82.9325C137.299 82.0849 136.811 80.9776 136.803 79.5146L134.803 79.5254C134.814 81.4927 135.501 83.1549 136.895 84.4159L138.237 82.9325ZM136.803 79.5146C136.796 78.2812 137.12 77.2466 137.751 76.3685L136.127 75.2017C135.228 76.4531 134.794 77.9085 134.803 79.5254L136.803 79.5146ZM137.75 76.3696C138.413 75.4495 139.311 74.7218 140.472 74.1922L139.643 72.3724C138.192 73.0336 137.011 73.9745 136.127 75.2006L137.75 76.3696ZM140.475 74.191C141.645 73.6536 142.971 73.3717 144.47 73.3635L144.459 71.3636C142.711 71.373 141.099 71.7036 139.64 72.3736L140.475 74.191ZM144.47 73.3635C145.99 73.3553 147.303 73.6203 148.431 74.1326L149.258 72.3119C147.827 71.6615 146.22 71.354 144.459 71.3636L144.47 73.3635ZM148.436 74.1348C149.578 74.6465 150.451 75.3352 151.089 76.1901L152.692 74.9941C151.827 73.8354 150.67 72.9442 149.253 72.3097L148.436 74.1348ZM151.092 76.1944C151.726 77.0347 152.062 77.9822 152.103 79.0661L154.101 78.9908C154.045 77.5065 153.573 76.1632 152.688 74.9899L151.092 76.1944ZM153.096 78.0284L150.114 78.0446L150.124 80.0446L153.107 80.0284L153.096 78.0284ZM158.78 97.6289L159.484 96.918L158.78 97.6289ZM158.763 94.472L158.052 93.7688L158.763 94.472ZM161.92 94.4549L162.623 93.744L162.623 93.744L161.92 94.4549ZM162.283 97.1501L161.426 96.6341L161.422 96.6418L161.417 96.6496L162.283 97.1501ZM161.479 97.9748L161.999 98.8295L162.005 98.8257L161.479 97.9748ZM160.357 97.2791C160.013 97.281 159.739 97.171 159.484 96.918L158.077 98.3399C158.704 98.9605 159.486 99.2839 160.368 99.2791L160.357 97.2791ZM159.484 96.918C159.228 96.6651 159.115 96.3928 159.113 96.0486L157.113 96.0595C157.118 96.9417 157.45 97.7193 158.077 98.3399L159.484 96.918ZM159.113 96.0486C159.111 95.7045 159.221 95.431 159.474 95.1753L158.052 93.7688C157.432 94.3961 157.108 95.1773 157.113 96.0595L159.113 96.0486ZM159.474 95.1753C159.727 94.9196 159.999 94.8066 160.344 94.8047L160.333 92.8048C159.451 92.8095 158.673 93.1414 158.052 93.7688L159.474 95.1753ZM160.344 94.8047C160.688 94.8029 160.961 94.9129 161.217 95.1658L162.623 93.744C161.996 93.1234 161.215 92.8 160.333 92.8048L160.344 94.8047ZM161.217 95.1658C161.473 95.4188 161.586 95.6911 161.587 96.0352L163.587 96.0244C163.583 95.1422 163.251 94.3646 162.623 93.744L161.217 95.1658ZM161.587 96.0352C161.589 96.2615 161.535 96.4539 161.426 96.6341L163.139 97.666C163.442 97.1645 163.591 96.6101 163.587 96.0244L161.587 96.0352ZM161.417 96.6496C161.304 96.8456 161.154 97.0007 160.954 97.1238L162.005 98.8257C162.482 98.5308 162.868 98.1362 163.149 97.6506L161.417 96.6496ZM160.96 97.1201C160.796 97.2199 160.604 97.2778 160.357 97.2791L160.368 99.2791C160.95 99.2759 161.502 99.131 161.999 98.8294L160.96 97.1201Z" fill="black"/>
</g>
<defs>
<filter id="filter0_d_46_2" x="0.00146484" y="0.00146484" width="117.998" height="115.043" filterUnits="userSpaceOnUse" color-interpolation-filters="sRGB">
<feFlood flood-opacity="0" result="BackgroundImageFix"/>
<feColorMatrix in="SourceAlpha" type="matrix" values="0 0 0 0 0 0 0 0 0 0 0 0 0 0 0 0 0 0 127 0" result="hardAlpha"/>
<feOffset dy="4"/>
<feGaussianBlur stdDeviation="2"/>
<feComposite in2="hardAlpha" operator="out"/>
<feColorMatrix type="matrix" values="0 0 0 0 1 0 0 0 0 1 0 0 0 0 1 0 0 0 0.85 0"/>
<feBlend mode="normal" in2="BackgroundImageFix" result="effect1_dropShadow_46_2"/>
<feBlend mode="normal" in="SourceGraphic" in2="effect1_dropShadow_46_2" result="shape"/>
</filter>
<filter id="filter1_d_46_2" x="79.0015" y="24.0015" width="131.998" height="129.043" filterUnits="userSpaceOnUse" color-interpolation-filters="sRGB">
<feFlood flood-opacity="0" result="BackgroundImageFix"/>
<feColorMatrix in="SourceAlpha" type="matrix" values="0 0 0 0 0 0 0 0 0 0 0 0 0 0 0 0 0 0 127 0" result="hardAlpha"/>
<feOffset dy="4"/>
<feGaussianBlur stdDeviation="5.5"/>
<feComposite in2="hardAlpha" operator="out"/>
<feColorMatrix type="matrix" values="0 0 0 0 1 0 0 0 0 1 0 0 0 0 1 0 0 0 1 0"/>
<feBlend mode="normal" in2="BackgroundImageFix" result="effect1_dropShadow_46_2"/>
<feBlend mode="normal" in="SourceGraphic" in2="effect1_dropShadow_46_2" result="shape"/>
</filter>
</defs>
</svg>
