<svg version="1.0" xmlns="http://www.w3.org/2000/svg" viewBox="0 0 836 255"><path d="M216.8 8.7c-1 .2-1.8 1-1.8 1.6.1 1.6 20.9 28.7 22.5 29.4 1.2.4 39-12.9 40.3-14.2 1.7-1.7-20.2-11.7-33.2-15.2-8.3-2.2-22.5-3-27.8-1.6zm-27.4 3.9c-8.5 4.5-31.1 21.2-44.2 32.7-7.6 6.6-29.6 28.6-29.2 29 .3.3 5.5-.8 11.5-2.3 6.1-1.5 28.1-7.2 49-12.5s41.6-10.6 46-11.7c4.4-1.1 8.3-2.3 8.7-2.7 1.1-1-22.9-31.9-26.2-33.6-4.3-2.2-10-1.9-15.6 1.1zM416 14c-29.3 1.7-64.3 7.5-97.5 16.1-6.6 1.7-13.8 3.5-16 4-2.2.6-4.4 1.5-5 2.1-.7.7-.3.8 1.4.3 10.7-3.2 56.5-10.2 85.1-13 32.3-3.1 73.7-.6 99.3 6.1 24.8 6.4 48.6 18.5 62.6 31.7 4.5 4.3 5.1 4.6 5.1 2.6 0-3-6.5-11.2-14.3-18.1-17.1-15.1-39.8-25-68-29.7-6.2-1.1-35.1-3.2-38.7-2.9-.8.1-7.1.4-14 .8z"/><path d="M426.6 37.6c-5 .7-9.3 1.7-9.8 2.2-1 1 2.8 16.8 4.9 20 .8 1.3 2.9 3 4.6 3.7 2.7 1.1 57 17.1 66.2 19.5 4 1.1 41.6 11.9 43.5 12.6 1 .3 1.2.2.5-.5-.5-.5-6.4-3-13-5.5-12.7-4.7-56.3-21.6-60.5-23.4-1.4-.6-7.2-2.9-12.9-5.2-23.6-9.3-26.6-12.9-17.3-20.9 2.6-2.3 4.3-4 3.7-4-.5.1-5 .7-9.9 1.5z"/><path fill="red" d="M290 51.7c-56.7 3-100.6 10-152.5 24.4-22.6 6.3-27.8 8.8-11.2 5.4 16.8-3.4 56.8-9.5 75.7-11.6 12.8-1.3 30.7-1.3 34.4.1 1.5.5 2.9 1.6 3.2 2.5.6 1.4-2.5 18.8-4.7 26.7l-1 3.8h-23.8c-17.9 0-24.1.3-24.8 1.2-1.3 1.7-4.3 13.1-4.3 16.3 0 2.5.1 2.5 8.9 2.5 5 0 9.3.4 9.6 1 .3.5-.1 3.5-1 6.7s-2.8 10.5-4.4 16.3c-1.6 5.8-5.6 20.5-9 32.6-3.3 12.2-6.1 23-6.1 24.2 0 1.1.7 2.3 1.6 2.6 2.2.8 12.7.7 14-.2 1-.7 3.1-8 16-55.2 3.5-12.9 6.8-24.5 7.4-25.8.9-2.1 1.6-2.2 10.8-2.2 11.8 0 11.9-.1 15.7-11.5 8.3-24.7 23.1-38.7 44.3-41.7 10.3-1.4 16.6-.2 27.8 5.2 13.7 6.6 26.2 20.5 31.7 35.1 6.9 18.2 6.2 44.5-1.8 66.9-8.1 22.6-23.6 41.1-39.2 47-8.4 3.1-13.9 3.5-22.9 1.5-13.7-3-24.8-9.8-31.8-19.4-8.7-11.8-15.4-30.9-17.7-50.4-.6-5.1-1.4-11.2-1.9-13.7-1.5-8.5-1.1 12.4.5 26.9 1.5 13.6 1.9 15.6 6.1 29.3 4.3 14.3 11.9 26.7 21.1 34.7 14 12.1 39.7 17.6 55.6 11.8 37.3-13.6 61.7-51.8 61.7-96.9 0-35.3-15.9-69.6-39.5-85.3-14-9.3-26.1-12-48.5-10.8z"/><path d="M54.6 52.8c-1 1.6 1.4 7.5 7.7 19.7 5.5 10.7 6.5 12 9.1 12.3 4.7.6 5-.9 2.2-9.7-3.1-9.6-3.1-9.8-.6-10.6 3.9-1.2 5.9.3 6.2 4.8l.3 4.2 7.5-.3c11.2-.3 19.4-1.2 21-2.2 1.9-1.2-.4-3.8-8.9-9.8l-6.5-4.6-16-2.3c-17.8-2.5-21.2-2.7-22-1.5zm246.6 32.7c-11.6 3.7-27.5 13.5-30.3 18.7-1 1.9-.7 2.6 3.5 6.5 2.5 2.4 5.1 4.1 5.6 3.8.5-.3 1.3-2.4 1.6-4.6.4-2.2 1.6-5.4 2.8-7.1 2.4-3.5 13.1-9.7 21.2-12.3 4.6-1.4 5.4-2.1 5.4-4.1 0-2-.5-2.4-2.7-2.3-1.6.1-4.7.7-7.1 1.4zm19.9 10c-17.1 21.7-18.4 31.4-5.4 40.9 5.2 3.8 15.4 8.1 17.5 7.3.7-.2-.9-1.5-3.7-2.8-7.3-3.4-15-11.4-15.8-16.4-.8-5.2-.1-8.1 3.7-13.4 2.8-4 16.3-14.1 18.8-14.1 2.2 0 0-2.2-4.9-5l-5.2-3-5 6.5zm-18.5 12c-3.8 4.8-8.7 10-11 11.6-6.8 4.8-7.9 6.1-6.2 7.7 3.4 3.5 15-6.3 21.1-17.9 5.6-10.7 4-11.3-3.9-1.4z"/><path fill="red" d="M59.7 109.2c-1.9 3.5-6 11.2-9.2 17.3-3.2 6-7 13.2-8.5 16-1.5 2.7-5.3 9.9-8.5 16-3.2 6-9.8 18.5-14.7 27.7-4.9 9.2-8.8 17.6-8.6 18.5.3 1.5 1.5 1.8 8.2 1.8h7.8l5.2-9.5c2.8-5.3 5.5-10.1 5.9-10.8.6-.8 4.6-1.2 13.7-1.2h12.9l.3 10.7.3 10.8h15l.6-6.5c.4-3.6.7-26.6.8-51.1.1-39.9-.1-44.8-1.5-45.3-.9-.3-4.9-.6-8.9-.6h-7.3l-3.5 6.2zm5.6 40.3c-.2 10.7-.6 15.1-1.5 15.7-1.8 1.1-13 1-14.8-.2-1.7-1-2.1 0 8.9-20.8 3-5.6 5.9-10.1 6.5-9.9.7.3 1 5.3.9 15.2zm42.8-45.1c-.8.9-1 15.3-.9 51.7l.3 50.4 8.5.3c7.3.2 8.7 0 9.6-1.5.6-1 4.8-9 9.4-17.8 4.5-8.8 10.2-19.6 12.5-24 3.7-7.1 10.5-20 25.2-48.4 4.8-9.3 5.1-10.7 2.6-11.4-2.9-.8-12.7-.8-13.9.1-.6.4-5.2 8.8-10.4 18.7-20.3 39.5-25.2 48.5-26.1 48.5-.5 0-.9-13.9-.9-33.4 0-29.5-.2-33.5-1.6-34-3.1-1.2-13.1-.6-14.3.8z"/><path d="M651 105.5c-.1 2.3-3.3 14.6-15.5 58.5-11.7 42.5-11.5 41.4-10.6 42.3.4.4 13.7.6 29.6.5l28.9-.3 2-8.1c1-4.5 1.6-8.9 1.3-9.8-.6-1.4-3-1.6-19.5-1.6-10.4 0-19.1-.2-19.4-.5-.5-.5 1.1-7.3 4.5-18.5l1.3-4.5 18.7-.3 18.7-.2 1.5-5.8c.9-3.1 2.1-7 2.6-8.6 1.7-5.2.5-5.6-18.2-5.6-19.4 0-18.1 1-14.5-11l2.2-7.5 19.3-.5 19.4-.5 2.4-8.9c1.3-4.9 2-9.3 1.6-9.7-.5-.5-13.3-1-28.6-1.1-27.1-.3-27.7-.3-27.7 1.7zm-241.8 6.3c-1.2 4.2-5.4 19.4-9.3 33.7-3.9 14.3-7.7 28-8.4 30.5-4.8 17.4-7.9 29.9-7.5 30.3.7.7 3.7.9 11.1.8 6.4-.1 6.7-.2 7.2-2.8.6-3.1 1-4.6 6.5-24.3l3.7-13.5 3.7-.3c4.6-.4 7.6 1.1 8.9 4.6 1.4 3.7 3.6 14.2 5.3 25.7.8 5.3 1.6 9.8 1.8 10.1.7.7 16.9.7 17.6 0 1.6-1.6-3-26.9-6.6-36.4-2.2-5.7-2.2-5.7 4.5-8.6 8-3.5 15.2-13.8 17.3-24.7 1.6-8.4 1.2-18.9-.9-23.4-3.9-8.6-7.1-9.5-32.5-9.5h-20.1l-2.3 7.8zm36.6 13.8c2.9 2 2.8 6.4-.1 12.4-3.2 6.6-6.9 8.6-17.3 9.4-5 .4-9.1.3-9.6-.2-.8-.8.9-8.3 4.8-21.5.5-1.5 1.9-1.7 10.2-1.7 7.2 0 10.3.4 12 1.6zm61.3-13.4c-2.4 4.6-5.8 11-7.6 14.3-1.7 3.3-5.8 10.9-9 17-3.2 6-7 13.2-8.5 16-10.6 19.3-24 45.7-23.5 46.5.3.6 4.4 1 9 1h8.5l3.6-7.2c2-4 4.7-8.9 6-11l2.5-3.9 12.2.3 12.2.3.3 10.7.3 10.7 3.2.3c1.8.2 5.6.1 8.5 0l5.2-.4.2-33.6c.1-18.6.2-41.6.2-51.2l.1-17.5-9.5-.3-9.5-.3-4.4 8.3zm6.4 39.4-.7 13.4h-7.5c-4.1 0-7.3-.3-7.1-.8 1.6-3.7 13.3-26 14.1-27.1 1.8-2.2 2 0 1.2 14.5zm58.1-46.8c-.3.5-1.2 3.4-2 6.3-.8 3-3.5 13-6.1 22.4-2.6 9.3-5.3 19.5-6.1 22.5-.8 3-4.2 15.3-7.5 27.4-3.4 12.1-5.7 22.2-5.2 22.7.9.9 16 1.6 16.6.8.4-.4 7-23.8 8.2-29 .8-3.3 13.1-15.7 14.4-14.4.5.6 3 10 5.6 21 2.6 11 4.8 20.6 5.1 21.2.2.9 3.1 1.3 9.9 1.3 9.1 0 9.5-.1 9.5-2.2 0-1.1-3.1-14.2-7-29-3.8-14.8-7-28-7-29.3 0-1.7 2.6-5.2 8.4-11.2 17.1-18 20.2-21.6 22.3-26.4l2.2-4.9h-19.7l-9.5 10.7c-15.8 17.9-22.6 24.9-22.7 23.2 0-.8 1.6-7.3 3.5-14.4 2-7.1 3.6-14.2 3.8-15.9l.2-3.1-8.2-.3c-4.5-.1-8.4.1-8.7.6zm148.9 4.9c-.9 3.2-2 7.1-2.5 8.6-1.7 5.1-.7 5.7 9.7 5.7h9.5l-.7 3.2c-.4 1.8-5 18.6-10.2 37.2-5.2 18.7-9.7 35.9-10 38.3l-.6 4.3h17.2l1.5-5.3c.8-2.8 2.4-8.6 3.5-12.7s5.5-20.3 9.8-36l7.8-28.5 10.5-.5 10.5-.5 2.3-8.3c1.3-4.6 2.1-8.9 1.8-9.7-.5-1.3-5.1-1.5-29.5-1.5h-29l-1.6 5.7zm84 1.5c-2.1 4-5.2 10-7 13.3-3.6 6.6-10.8 20.4-19.2 36.5-3.1 5.8-6.3 11.8-7.3 13.5-5.8 9.9-16 30.7-15.5 31.5.3.6 4.4 1 9 1h8.5l5.1-10.2c2.8-5.7 5.7-10.6 6.3-11 1.6-1.1 22.8-1 24.5.1 1 .6 1.3 3.1 1.1 9.7-.1 4.9-.2 9.5-.1 10.2.1 1 2.2 1.2 8.4 1l8.2-.3.7-50c.5-27.5.6-50.6.3-51.3-.3-.8-3.2-1.2-9.9-1.2h-9.4l-3.7 7.2zm7.1 26c-.3 1.3-.6 8-.6 15V165h-7.3c-4.1 0-7.6-.3-8-.6-.3-.3 1.2-4.1 3.3-8.3 2.1-4.2 5.2-10.6 6.9-14.4 2-4.3 3.7-6.7 4.7-6.7 1.2 0 1.5.6 1 2.2zm-549-16.7c-4.6 4.6-9.3 30-8.2 44 1.3 15.1 2.3 17.1 7 14 4.7-3.1 5.5-6.7 5.9-26.5.3-14.8.7-19.4 2.2-22.7 2-5.1 1.6-6.7-2.4-8.7-2.7-1.4-3.1-1.4-4.5-.1zm17 22.2c.3 2.3 0 5.5-.9 8-1.8 5.4-.7 5.5 4.9.3 4.9-4.5 6.9-5.1 6.1-1.8-.3 1.1 0 3.7.8 5.5 1.1 2.7 2 3.4 3.7 3.1 2.7-.4 3.5-3.2 1.5-5.3-2.1-2.1-1-5.2 2.9-8.2 1.9-1.4 3.4-3.2 3.4-3.9 0-2.5-5-1.5-8.2 1.6-3.7 3.7-4.5 3.7-8.8 0-4.8-4.1-6.2-3.9-5.4.7zm44.9 16.3c-18.1 2.1-22.4 9.7-17.5 31.6 3.7 16.7 3.2 16 8.7 15.6 7.8-.5 7.9-.7 3-6.2-12.1-13.5-12.4-25.8-.9-33.1 5.4-3.4 13-5.9 18.1-5.9 2.1 0 3.1-.4 2.6-.9-1.6-1.5-6.7-1.9-14-1.1zm-46.1 13.2c-.7 1.1 2.1 3.8 4.1 3.8 3.4 0 6.6 6.6 11.5 23.8 1.5 5.3 3.2 9.8 3.7 9.9 1.6.6.4-14.2-1.9-24-2.7-11.7-5.2-14.7-11.8-14.7-2.7 0-5.2.5-5.6 1.2zm-13 11.6c-1.1 1.5-3.1 4.1-4.3 5.8l-2.3 3.2 3.9 5.3c7 9.4 16.3 16.9 21.1 16.9 3.3 0 3.1-1.1-1.1-6.3-3.5-4.3-10.8-18.9-13.1-26-.7-2.3-1.7-2.1-4.2 1.1z"/></svg>