<svg width="211" height="154" fill="none" xmlns="http://www.w3.org/2000/svg"><g filter="url(#a)"><rect x="4" y=".011" width="109.99" height="107.035" rx="14" fill="#1F222A"/></g><path d="m51.234 41.819 7.673 21.386.298-.002 7.44-21.468 3.232-.017-9.208 25.505-3.182.017-9.485-25.404 3.232-.017Zm21.103 25.54a2.153 2.153 0 0 1-1.582-.651 2.153 2.153 0 0 1-.667-1.575 2.154 2.154 0 0 1 .65-1.582 2.153 2.153 0 0 1 1.575-.667 2.153 2.153 0 0 1 1.582.65c.442.437.664.962.667 1.575.002.406-.099.78-.304 1.12-.197.34-.465.616-.804.825-.33.2-.702.302-1.117.304Z" fill="#fff"/><g filter="url(#b)"><rect x="90" y="31.011" width="109.99" height="107.035" rx="14" fill="#1F222A"/><path d="M150.119 79.045c-.156-1.259-.766-2.234-1.831-2.924-1.064-.69-2.367-1.03-3.908-1.023-1.127.007-2.112.194-2.955.563-.835.37-1.487.874-1.955 1.515a3.605 3.605 0 0 0-.685 2.179c.004.68.169 1.262.495 1.75.334.478.758.878 1.274 1.198.515.312 1.055.57 1.62.775.564.195 1.083.354 1.556.476l2.589.682c.664.17 1.403.406 2.216.709.822.302 1.607.716 2.356 1.242a6.387 6.387 0 0 1 1.875 2.004c.494.817.744 1.823.75 3.016.007 1.375-.346 2.62-1.061 3.734-.707 1.114-1.746 2.002-3.118 2.665-1.363.662-3.023.998-4.978 1.009-1.823.01-3.403-.276-4.741-.857-1.328-.581-2.377-1.396-3.145-2.444-.76-1.048-1.193-2.268-1.3-3.66l3.182-.017c.088.96.415 1.754.982 2.381.575.618 1.299 1.079 2.17 1.38.88.294 1.826.438 2.836.432 1.177-.006 2.232-.202 3.167-.588.934-.395 1.673-.938 2.216-1.628.543-.7.812-1.513.807-2.44-.005-.846-.245-1.532-.72-2.06s-1.099-.955-1.871-1.283a19.658 19.658 0 0 0-2.503-.856l-3.137-.878c-1.992-.56-3.57-1.368-4.736-2.423-1.166-1.054-1.754-2.439-1.763-4.154-.008-1.425.371-2.67 1.136-3.735.773-1.073 1.812-1.907 3.118-2.503 1.315-.603 2.784-.91 4.408-.918 1.64-.01 3.1.277 4.38.858 1.279.573 2.294 1.363 3.045 2.37a5.938 5.938 0 0 1 1.212 3.436l-2.983.017Zm10.243 19.234a2.154 2.154 0 0 1-1.582-.65 2.154 2.154 0 0 1-.667-1.575 2.158 2.158 0 0 1 .65-1.582 2.155 2.155 0 0 1 1.575-.667 2.153 2.153 0 0 1 1.582.65c.442.437.664.962.667 1.575a2.1 2.1 0 0 1-.304 1.12 2.32 2.32 0 0 1-.804.825c-.33.2-.702.302-1.117.304Z" fill="#fff"/></g><defs><filter id="a" x=".001" y=".001" width="117.998" height="115.044" filterUnits="userSpaceOnUse" color-interpolation-filters="sRGB"><feFlood flood-opacity="0" result="BackgroundImageFix"/><feColorMatrix in="SourceAlpha" values="0 0 0 0 0 0 0 0 0 0 0 0 0 0 0 0 0 0 127 0" result="hardAlpha"/><feOffset dy="4"/><feGaussianBlur stdDeviation="2"/><feComposite in2="hardAlpha" operator="out"/><feColorMatrix values="0 0 0 0 1 0 0 0 0 1 0 0 0 0 1 0 0 0 0.85 0"/><feBlend in2="BackgroundImageFix" result="effect1_dropShadow_8_73"/><feBlend in="SourceGraphic" in2="effect1_dropShadow_8_73" result="shape"/></filter><filter id="b" x="79.001" y="24.002" width="131.998" height="129.044" filterUnits="userSpaceOnUse" color-interpolation-filters="sRGB"><feFlood flood-opacity="0" result="BackgroundImageFix"/><feColorMatrix in="SourceAlpha" values="0 0 0 0 0 0 0 0 0 0 0 0 0 0 0 0 0 0 127 0" result="hardAlpha"/><feOffset dy="4"/><feGaussianBlur stdDeviation="5.5"/><feComposite in2="hardAlpha" operator="out"/><feColorMatrix values="0 0 0 0 1 0 0 0 0 1 0 0 0 0 1 0 0 0 1 0"/><feBlend in2="BackgroundImageFix" result="effect1_dropShadow_8_73"/><feBlend in="SourceGraphic" in2="effect1_dropShadow_8_73" result="shape"/></filter></defs></svg>