<svg width="808" height="223" fill="none" xmlns="http://www.w3.org/2000/svg"><path fill-rule="evenodd" clip-rule="evenodd" d="M272.159 133h-7.351c-17.651 0-31.021 10.831-34.09 26.954l18.746 3.037c2.565-7.68 8.458-12.918 15.908-13.266 1.412-.1 2.83-.1 4.242 0 11.083.401 16.087 5.767 16.087 19.006-2.416 0-4.745-.013-6.99-.026-17.262-.099-29.58-.169-38.918 6.047-8.617 5.74-12.316 12.102-12.316 22.157 0 14.558 11.222 26.091 29.331 26.091h2.492c12.793 0 23.12-5.024 27.323-11.092v9.312h18.897v-52.101c.014-20.097-10.652-36.119-33.361-36.119Zm-11.54 73.135c-8.033-.235-12.687-4.931-12.687-10.865 0-4.917 2.194-7.359 5.098-9.031 3.042-1.793 6.993-2.409 13.137-2.629 1.019-.037 2.004-.076 2.985-.114 4.707-.183 9.303-.361 16.901-.361 0 14.717-9.194 22.163-20.615 22.953a44.268 44.268 0 0 1-4.819.047Z" fill="#007BFB"/><path d="M325.272 134.773h30.073l24.247 64.826 24.061-64.826h29.019v86.434h-19.288V155.13l-25.122 66.07h-19.819l-25.129-65.708v65.715h-18.042v-86.434Zm233.387 0h66.358v86.434h-20.549V152.99h-27.05c-.179 12.142-.53 28.398-.882 37.503-.709 22.679-7.291 30.714-26.547 30.714h-9.2v-18.21h5.131c8.67 0 11.5-3.934 12.037-16.257.53-13.212.702-39.464.702-51.967Zm249.341 0h-78.03v18.217h28.841v68.237h20.349V152.99H808v-18.217Z" fill="#007BFB"/><path fill-rule="evenodd" clip-rule="evenodd" d="M725.211 175.738v8.095l-64.329.033v1.338c0 12.23 9.532 20.652 20.177 21.094 1.534.1 3.073.1 4.607 0 6.801-.341 15.292-3.787 19.746-12.778l18.215 3.218c-4.202 14.336-18.46 25.315-37.298 25.843l-.88.026c-1.223.035-1.888.055-2.554.057-.796.002-1.592-.021-3.339-.071l-.419-.012c-21.629-.569-37.822-16.263-38.385-39.578-.113-4.689-.113-6.121 0-9.546.788-23.435 16.18-40.033 40.307-40.033h4.382c22.41 0 39.77 14.43 39.77 42.314Zm-39.439-26.024a37.638 37.638 0 0 0-5.071 0v-.007c-10.413.576-18.699 7.58-19.719 17.983h44.059c-.908-11.654-10.327-17.521-19.269-17.976Zm-150.584 20.645c-.457-20.913-17.168-36.935-39.26-36.935h-8.007c-22.093 0-38.803 16.056-39.267 37.049-.113 5.834-.113 9.232 0 15.059.464 21.033 17.174 37.049 39.267 37.049h8.007c22.092 0 38.803-16.016 39.26-37.049.119-5.827.119-9.339 0-15.173Zm-20.177 14.103c-.238 12.216-9.041 20.504-20.886 21.113a26.724 26.724 0 0 1-4.401 0c-11.965-.609-20.648-8.897-20.886-21.113-.12-5.078-.12-7.961 0-13.039.238-12.089 8.921-20.384 20.886-20.986a25.268 25.268 0 0 1 4.401 0c11.845.602 20.648 8.897 20.886 21.106.119 5.078.119 7.841 0 12.919Z" fill="#007BFB"/><path d="M178.326 205.426c8.577-1.204 14.96-6.69 17.347-14.718l20.117 2.783c-3.931 16.98-18.792 29.088-38.014 29.088h-5.707c-22.093 0-38.81-16.015-39.267-37.049a406.439 406.439 0 0 1 0-15.059c.477-21.026 17.194-37.049 39.287-37.049h5.707c18.844 0 33.579 11.668 37.861 28.058l-19.885 3.88c-2.486-8.416-9.359-13.955-18.487-14.952a26.537 26.537 0 0 0-5.302.034c-10.871 1.17-18.759 9.546-18.984 21.006-.119 5.078-.119 7.961 0 13.039.225 11.353 7.735 19.434 18.407 20.939 2.296.316 4.624.316 6.92 0Z" fill="#007BFB"/><path d="M770.205 93.707a1 1 0 0 0 1.414 0l6.364-6.364a1 1 0 1 0-1.414-1.414l-5.657 5.657-5.657-5.657a1 1 0 1 0-1.414 1.414l6.364 6.364ZM769.912 0v93h2V0h-2ZM93.744 184.16a1 1 0 0 0 0-1.414l-6.364-6.364a1 1 0 0 0-1.414 1.415l5.657 5.656-5.657 5.657a1 1 0 1 0 1.414 1.414l6.364-6.364ZM0 184.453h93.037v-2H0v2Z" fill="#3395FC"/></svg>