<svg width="211" height="154" fill="none" xmlns="http://www.w3.org/2000/svg"><g filter="url(#a)"><rect x="4" y=".011" width="109.99" height="107.035" rx="14" fill="#fff"/><rect x="4.5" y=".511" width="108.99" height="106.035" rx="13.5" stroke="#000"/></g><path d="m51.234 41.819 7.673 21.386.298-.002 7.44-21.468 3.232-.017-9.208 25.505-3.182.017-9.485-25.404 3.232-.017Zm21.103 25.54a2.153 2.153 0 0 1-1.582-.651 2.153 2.153 0 0 1-.667-1.575 2.154 2.154 0 0 1 .65-1.582 2.153 2.153 0 0 1 1.575-.667 2.153 2.153 0 0 1 1.582.65c.442.437.664.962.667 1.575.002.406-.099.78-.304 1.12-.197.34-.465.616-.804.825-.33.2-.702.302-1.117.304Z" fill="#1F222A"/><path d="m51.234 41.819.941-.338-.239-.666-.708.004.006 1Zm7.673 21.386-.941.338.239.666.707-.004-.005-1Zm.298-.002.006 1 .707-.003.232-.67-.945-.327Zm7.44-21.468-.005-1-.707.004-.232.669.945.327Zm3.232-.017.94.34.487-1.348-1.432.008.005 1ZM60.67 67.223l.005 1 .698-.004.237-.657-.94-.34Zm-3.182.017-.937.35.244.654.698-.004-.005-1Zm-9.485-25.404-.005-1-1.432.008.5 1.342.937-.35Zm2.29.32 7.674 21.387 1.882-.676-7.673-21.386-1.882.675Zm8.62 22.05.299-.002-.011-2-.299.001.011 2Zm1.238-.675 7.44-21.468-1.89-.655-7.44 21.468 1.89.655Zm6.501-20.796 3.231-.017-.01-2-3.232.017.011 2Zm2.285-1.357-9.208 25.505 1.881.68 9.209-25.506-1.882-.679Zm-8.273 24.845-3.181.017.01 2 3.182-.017-.01-2Zm-2.24.667L48.94 41.487l-1.873.7L56.55 67.59l1.874-.7ZM48.009 42.836l3.231-.017-.01-2-3.232.017.01 2Zm22.747 23.872.704-.71-.704.71Zm-.017-3.157-.71-.703.71.703Zm3.157-.017.703-.711-.703.711Zm.363 2.695-.857-.516-.005.008-.004.008.866.5Zm-.804.825.52.855.005-.004-.525-.851Zm-1.122-.696a1.156 1.156 0 0 1-.873-.36l-1.407 1.42a3.149 3.149 0 0 0 2.29.94l-.01-2Zm-.873-.36a1.156 1.156 0 0 1-.371-.87l-2 .01c.005.883.337 1.66.964 2.28l1.406-1.42Zm-.371-.87a1.156 1.156 0 0 1 .361-.874l-1.422-1.406a3.152 3.152 0 0 0-.939 2.29l2-.01Zm.361-.874c.253-.255.525-.368.87-.37l-.011-2a3.152 3.152 0 0 0-2.28.964l1.421 1.406Zm.87-.37c.344-.002.617.108.873.36l1.406-1.421a3.152 3.152 0 0 0-2.29-.94l.01 2Zm.873.36c.256.254.369.526.37.87l2-.01a3.152 3.152 0 0 0-.964-2.281l-1.406 1.422Zm.37.87a1.11 1.11 0 0 1-.16.6l1.712 1.031a3.107 3.107 0 0 0 .448-1.642l-2 .011Zm-.17.615a1.32 1.32 0 0 1-.463.474l1.05 1.702c.478-.295.864-.69 1.144-1.175l-1.731-1.001Zm-.457.47c-.164.1-.357.158-.603.16l.01 2a3.13 3.13 0 0 0 1.631-.45l-1.038-1.71Z" fill="#000"/><g filter="url(#b)"><rect x="90.5" y="31.511" width="108.99" height="106.035" rx="13.5" fill="#fff" stroke="#000"/><path d="M150.119 79.045c-.156-1.259-.766-2.234-1.831-2.924-1.064-.69-2.367-1.03-3.908-1.023-1.127.007-2.112.194-2.955.563-.835.37-1.487.874-1.955 1.515a3.605 3.605 0 0 0-.685 2.179c.004.68.169 1.262.495 1.75.334.478.758.878 1.274 1.198.515.312 1.055.57 1.62.775.564.195 1.083.354 1.556.476l2.589.682c.664.17 1.403.406 2.216.709.822.302 1.607.716 2.356 1.242a6.387 6.387 0 0 1 1.875 2.004c.494.817.744 1.823.75 3.016.007 1.375-.346 2.62-1.061 3.734-.707 1.114-1.746 2.002-3.118 2.665-1.363.662-3.023.998-4.978 1.009-1.823.01-3.403-.276-4.741-.857-1.328-.581-2.377-1.396-3.145-2.444-.76-1.048-1.193-2.268-1.3-3.66l3.182-.017c.088.96.415 1.754.982 2.381.575.618 1.299 1.079 2.17 1.38.88.294 1.826.438 2.836.432 1.177-.006 2.232-.202 3.167-.588.934-.395 1.673-.938 2.216-1.628.543-.7.812-1.513.807-2.44-.005-.846-.245-1.532-.72-2.06s-1.099-.955-1.871-1.283a19.658 19.658 0 0 0-2.503-.856l-3.137-.878c-1.992-.56-3.57-1.368-4.736-2.423-1.166-1.054-1.754-2.439-1.763-4.154-.008-1.425.371-2.67 1.136-3.735.773-1.073 1.812-1.907 3.118-2.503 1.315-.603 2.784-.91 4.408-.918 1.64-.01 3.1.277 4.38.858 1.279.573 2.294 1.363 3.045 2.37a5.938 5.938 0 0 1 1.212 3.436l-2.983.017Zm10.243 19.234a2.154 2.154 0 0 1-1.582-.65 2.154 2.154 0 0 1-.667-1.575 2.158 2.158 0 0 1 .65-1.582 2.155 2.155 0 0 1 1.575-.667 2.153 2.153 0 0 1 1.582.65c.442.437.664.962.667 1.575a2.1 2.1 0 0 1-.304 1.12 2.32 2.32 0 0 1-.804.825c-.33.2-.702.302-1.117.304Z" fill="#1F222A"/><path d="m150.119 79.045-.992.123.109.881.888-.004-.005-1Zm-1.831-2.924-.544.84.544-.84Zm-6.863-.46-.401-.916-.003.002.404.914Zm-1.955 1.515-.807-.59-.005.006.812.584Zm-.19 3.928-.832.556.006.009.005.008.821-.573Zm1.274 1.2-.528.849.01.006.518-.856Zm1.62.773-.34.941.012.004.328-.945Zm1.556.477.255-.967-.006-.002-.249.969Zm2.589.682-.255.967.006.001.249-.968Zm2.216.709-.348.937.003.001.345-.938Zm2.356 1.242-.575.818.01.008.565-.826Zm1.875 2.004.857-.517-.857.516Zm-.311 6.75-.842-.54-.003.005.845.535Zm-3.118 2.665-.434-.901-.003.001.437.9Zm-9.719.152-.4.916h.002l.398-.916Zm-3.145-2.444-.81.587.003.004.807-.591Zm-1.3-3.66-.005-1-1.074.006.082 1.07.997-.076Zm3.182-.017.996-.091-.084-.914-.918.005.006 1Zm.982 2.381-.742.671.01.01.732-.68Zm2.17 1.38-.327.945.011.004.316-.949Zm6.003-.156.382.924.007-.003-.389-.921Zm2.216-1.628.786.618.003-.005-.789-.613Zm.087-4.5.743-.67-.743.67Zm-1.871-1.283-.39.921.39-.92Zm-2.503-.856-.27.963.008.002.262-.965Zm-3.137-.878-.271.963h.002l.269-.963Zm-4.736-2.423-.671.742.671-.742Zm-.627-7.889-.812-.584.812.584Zm3.118-2.503.415.91.003-.001-.418-.909Zm8.788-.06-.414.91.005.003.409-.913Zm3.045 2.37-.801.598.003.004.798-.602Zm1.212 3.436.005 1 1.033-.005-.039-1.032-.999.037Zm-1.991-.106c-.192-1.552-.966-2.789-2.278-3.64l-1.089 1.678c.817.53 1.263 1.242 1.383 2.208l1.984-.246Zm-2.278-3.64c-1.261-.817-2.764-1.193-4.458-1.184l.011 2c1.388-.007 2.49.299 3.358.862l1.089-1.678Zm-4.458-1.184c-1.234.007-2.358.213-3.351.647l.802 1.832c.694-.303 1.539-.473 2.56-.479l-.011-2Zm-3.354.649c-.971.429-1.771 1.036-2.358 1.838l1.613 1.181c.351-.479.854-.881 1.553-1.19l-.808-1.83Zm-2.363 1.845a4.607 4.607 0 0 0-.873 2.768l2-.01a2.61 2.61 0 0 1 .496-1.59l-1.623-1.168Zm-.873 2.768c.005.844.212 1.626.663 2.3l1.663-1.111c-.201-.3-.323-.684-.326-1.2l-2 .011Zm.674 2.317a5.307 5.307 0 0 0 1.567 1.476l1.056-1.7a3.297 3.297 0 0 1-.982-.92l-1.641 1.144Zm1.577 1.482c.571.346 1.171.632 1.798.859l.68-1.881a8.05 8.05 0 0 1-1.442-.69l-1.036 1.712Zm1.81.863c.585.203 1.13.37 1.635.5l.498-1.937a19.199 19.199 0 0 1-1.478-.452l-.655 1.89Zm1.629.499 2.589.682.51-1.934-2.589-.682-.51 1.934Zm2.595.683c.623.16 1.328.385 2.117.678l.696-1.875a23.581 23.581 0 0 0-2.315-.74l-.498 1.937Zm2.12.68c.737.27 1.445.643 2.126 1.121l1.15-1.636a11.21 11.21 0 0 0-2.586-1.363l-.69 1.877Zm2.136 1.129a5.386 5.386 0 0 1 1.584 1.694l1.713-1.033a7.401 7.401 0 0 0-2.167-2.312l-1.13 1.65Zm1.584 1.694c.38.63.6 1.448.606 2.505l2-.01c-.007-1.33-.286-2.522-.893-3.528l-1.713 1.033Zm.606 2.505c.006 1.19-.296 2.244-.903 3.19l1.684 1.08c.823-1.284 1.227-2.72 1.219-4.28l-2 .01Zm-.906 3.194c-.592.933-1.477 1.705-2.707 2.299l.869 1.801c1.513-.73 2.706-1.734 3.527-3.03l-1.689-1.07Zm-2.71 2.3c-1.196.58-2.699.898-4.547.909l.011 2c2.063-.012 3.879-.366 5.41-1.11l-.874-1.799Zm-4.547.909c-1.717.009-3.154-.26-4.336-.774l-.797 1.834c1.492.648 3.216.95 5.144.94l-.011-2Zm-4.334-.773c-1.186-.52-2.087-1.23-2.739-2.12l-1.614 1.183c.884 1.206 2.08 2.126 3.552 2.769l.801-1.833Zm-2.736-2.115c-.643-.887-1.019-1.927-1.113-3.15l-1.994.154c.12 1.56.611 2.96 1.487 4.17l1.62-1.174Zm-2.105-2.073 3.182-.017-.011-2-3.181.017.01 2Zm2.181-.926c.105 1.145.504 2.151 1.237 2.96l1.483-1.34c-.402-.445-.657-1.025-.728-1.802l-1.992.182Zm1.246 2.971c.696.75 1.563 1.294 2.575 1.644l.655-1.89c-.732-.253-1.312-.628-1.766-1.116l-1.464 1.362Zm2.586 1.648c.992.331 2.047.49 3.158.483l-.011-2a7.758 7.758 0 0 1-2.514-.38l-.633 1.897Zm3.158.483c1.285-.007 2.471-.221 3.543-.664l-.764-1.849c-.797.33-1.722.508-2.79.514l.011 2Zm3.55-.667c1.066-.45 1.95-1.088 2.613-1.931l-1.572-1.236c-.424.538-1.017.985-1.819 1.324l.778 1.843Zm2.616-1.936c.688-.885 1.024-1.919 1.018-3.06l-2 .012c.004.715-.198 1.308-.597 1.821l1.579 1.227Zm1.018-3.06c-.006-1.04-.307-1.979-.977-2.722l-1.486 1.338c.281.312.459.747.463 1.396l2-.011Zm-.977-2.722c-.589-.655-1.341-1.16-2.224-1.534l-.78 1.841c.662.28 1.157.63 1.518 1.031l1.486-1.338Zm-2.224-1.534a20.547 20.547 0 0 0-2.631-.901l-.524 1.93c.857.233 1.648.504 2.375.812l.78-1.841Zm-2.624-.9-3.136-.877-.539 1.926 3.136.878.539-1.926Zm-3.135-.876c-1.888-.532-3.315-1.279-4.336-2.203l-1.342 1.484c1.311 1.185 3.041 2.054 5.136 2.644l.542-1.925Zm-4.336-2.203c-.938-.847-1.426-1.954-1.434-3.417l-2 .01c.011 1.968.698 3.63 2.092 4.89l1.342-1.483Zm-1.434-3.417c-.007-1.234.317-2.268.948-3.147l-1.624-1.166c-.899 1.251-1.333 2.707-1.324 4.323l2-.01Zm.947-3.145c.663-.92 1.561-1.648 2.722-2.178l-.829-1.82c-1.451.662-2.632 1.603-3.516 2.829l1.623 1.169Zm2.725-2.179c1.17-.537 2.496-.82 3.995-.828l-.011-2c-1.748.01-3.36.34-4.819 1.01l.835 1.818Zm3.995-.828c1.52-.008 2.833.257 3.961.77l.827-1.821c-1.431-.65-3.038-.958-4.799-.948l.011 2Zm3.966.772c1.142.511 2.015 1.2 2.653 2.055l1.603-1.196c-.865-1.159-2.022-2.05-3.439-2.684l-.817 1.825Zm2.656 2.06c.634.84.97 1.787 1.011 2.871l1.998-.075a6.945 6.945 0 0 0-1.413-4.001l-1.596 1.204Zm2.004 1.834-2.982.016.01 2 2.983-.017-.011-2Zm5.684 19.6.704-.711-.704.71Zm-.017-3.157-.711-.703.711.703Zm3.157-.017.703-.711-.703.71Zm.363 2.695-.857-.516-.004.008-.005.008.866.5Zm-.804.825.52.855.006-.004-.526-.851Zm-1.122-.696a1.154 1.154 0 0 1-.873-.361l-1.407 1.422c.627.62 1.409.944 2.291.94l-.011-2Zm-.873-.361a1.156 1.156 0 0 1-.371-.87l-2 .011c.005.883.337 1.66.964 2.28l1.407-1.421Zm-.371-.87a1.155 1.155 0 0 1 .361-.873l-1.422-1.406a3.153 3.153 0 0 0-.939 2.29l2-.01Zm.361-.873c.253-.255.525-.368.87-.37l-.011-2a3.154 3.154 0 0 0-2.281.964l1.422 1.406Zm.87-.37c.344-.002.617.108.873.36l1.406-1.421a3.15 3.15 0 0 0-2.29-.94l.011 2Zm.873.36c.256.254.369.526.37.87l2-.01a3.147 3.147 0 0 0-.964-2.281l-1.406 1.422Zm.37.87c.002.227-.052.419-.161.6l1.713 1.031a3.092 3.092 0 0 0 .448-1.642l-2 .011Zm-.17.615a1.315 1.315 0 0 1-.463.474l1.051 1.702a3.33 3.33 0 0 0 1.144-1.175l-1.732-1.001Zm-.457.47a1.13 1.13 0 0 1-.603.16l.011 2a3.133 3.133 0 0 0 1.631-.45l-1.039-1.71Z" fill="#000"/></g><defs><filter id="a" x=".001" y=".001" width="117.998" height="115.043" filterUnits="userSpaceOnUse" color-interpolation-filters="sRGB"><feFlood flood-opacity="0" result="BackgroundImageFix"/><feColorMatrix in="SourceAlpha" values="0 0 0 0 0 0 0 0 0 0 0 0 0 0 0 0 0 0 127 0" result="hardAlpha"/><feOffset dy="4"/><feGaussianBlur stdDeviation="2"/><feComposite in2="hardAlpha" operator="out"/><feColorMatrix values="0 0 0 0 1 0 0 0 0 1 0 0 0 0 1 0 0 0 0.85 0"/><feBlend in2="BackgroundImageFix" result="effect1_dropShadow_46_2"/><feBlend in="SourceGraphic" in2="effect1_dropShadow_46_2" result="shape"/></filter><filter id="b" x="79.001" y="24.002" width="131.998" height="129.043" filterUnits="userSpaceOnUse" color-interpolation-filters="sRGB"><feFlood flood-opacity="0" result="BackgroundImageFix"/><feColorMatrix in="SourceAlpha" values="0 0 0 0 0 0 0 0 0 0 0 0 0 0 0 0 0 0 127 0" result="hardAlpha"/><feOffset dy="4"/><feGaussianBlur stdDeviation="5.5"/><feComposite in2="hardAlpha" operator="out"/><feColorMatrix values="0 0 0 0 1 0 0 0 0 1 0 0 0 0 1 0 0 0 1 0"/><feBlend in2="BackgroundImageFix" result="effect1_dropShadow_46_2"/><feBlend in="SourceGraphic" in2="effect1_dropShadow_46_2" result="shape"/></filter></defs></svg>