<svg width="808" height="223" viewBox="0 0 808 223" fill="none" xmlns="http://www.w3.org/2000/svg">
<path fill-rule="evenodd" clip-rule="evenodd" d="M272.159 133H264.808C247.157 133 233.787 143.831 230.718 159.954L249.464 162.991C252.029 155.311 257.922 150.073 265.372 149.725C266.784 149.625 268.202 149.625 269.614 149.725C280.697 150.126 285.701 155.492 285.701 168.731C283.285 168.731 280.956 168.718 278.711 168.705C261.449 168.606 249.131 168.536 239.793 174.752C231.176 180.492 227.477 186.854 227.477 196.909C227.477 211.467 238.699 223 256.808 223H259.3C272.093 223 282.42 217.976 286.623 211.908V221.22H305.52V169.119C305.534 149.022 294.868 133 272.159 133ZM260.619 206.135C252.586 205.9 247.932 201.204 247.932 195.27C247.932 190.353 250.126 187.911 253.03 186.239C256.072 184.446 260.023 183.83 266.167 183.61C267.186 183.573 268.171 183.534 269.152 183.496C273.859 183.313 278.455 183.135 286.053 183.135C286.053 197.852 276.859 205.298 265.438 206.088C263.834 206.191 262.225 206.207 260.619 206.135Z" fill="#007BFB"/>
<path d="M325.272 134.773H355.345L379.592 199.599L403.653 134.773H432.672V221.207H413.384V155.13L388.262 221.2H368.443L343.314 155.492V221.207H325.272V134.773Z" fill="#007BFB"/>
<path d="M558.659 134.773H625.017V221.207H604.468V152.99H577.418C577.239 165.132 576.888 181.388 576.536 190.493C575.827 213.172 569.245 221.207 549.989 221.207H540.789V202.997H545.92C554.59 202.997 557.42 199.063 557.957 186.74C558.487 173.528 558.659 147.276 558.659 134.773Z" fill="#007BFB"/>
<path d="M808 134.773H729.97V152.99H758.811V221.227H779.16V152.99H808V134.773Z" fill="#007BFB"/>
<path fill-rule="evenodd" clip-rule="evenodd" d="M725.211 175.738V183.833L660.882 183.866V185.204C660.882 197.434 670.414 205.856 681.059 206.298C682.593 206.398 684.132 206.398 685.666 206.298C692.467 205.957 700.958 202.511 705.412 193.52L723.627 196.738C719.425 211.074 705.167 222.053 686.329 222.581L685.449 222.607C684.226 222.642 683.561 222.662 682.895 222.664C682.099 222.666 681.303 222.643 679.556 222.593L679.137 222.581C657.508 222.012 641.315 206.318 640.752 183.003C640.639 178.314 640.639 176.882 640.752 173.457C641.54 150.022 656.932 133.424 681.059 133.424H685.441C707.851 133.424 725.211 147.854 725.211 175.738ZM685.772 149.714C684.084 149.6 682.39 149.6 680.701 149.714V149.707C670.288 150.283 662.002 157.287 660.982 167.69H705.041C704.133 156.036 694.714 150.169 685.772 149.714Z" fill="#007BFB"/>
<path fill-rule="evenodd" clip-rule="evenodd" d="M535.188 170.359C534.731 149.446 518.02 133.424 495.928 133.424H487.921C465.828 133.424 449.118 149.48 448.654 170.473C448.541 176.307 448.541 179.705 448.654 185.532C449.118 206.565 465.828 222.581 487.921 222.581H495.928C518.02 222.581 534.731 206.565 535.188 185.532C535.307 179.705 535.307 176.193 535.188 170.359ZM515.011 184.462C514.773 196.678 505.97 204.966 494.125 205.575C492.66 205.696 491.188 205.696 489.724 205.575C477.759 204.966 469.076 196.678 468.838 184.462C468.718 179.384 468.718 176.501 468.838 171.423C469.076 159.334 477.759 151.039 489.724 150.437C491.188 150.309 492.661 150.309 494.125 150.437C505.97 151.039 514.773 159.334 515.011 171.543C515.13 176.621 515.13 179.384 515.011 184.462Z" fill="#007BFB"/>
<path d="M178.326 205.426C186.903 204.222 193.286 198.736 195.673 190.708L215.79 193.491C211.859 210.471 196.998 222.579 177.776 222.579H172.069C149.976 222.579 133.259 206.564 132.802 185.53C132.709 179.703 132.709 176.305 132.802 170.471C133.279 149.445 149.996 133.422 172.089 133.422H177.796C196.64 133.422 211.375 145.09 215.657 161.48L195.772 165.36C193.286 156.944 186.413 151.405 177.285 150.408C175.521 150.242 173.745 150.254 171.983 150.442C161.112 151.612 153.224 159.988 152.999 171.448C152.88 176.526 152.88 179.409 152.999 184.487C153.224 195.84 160.734 203.921 171.406 205.426C173.702 205.742 176.03 205.742 178.326 205.426Z" fill="#007BFB"/>
<path d="M770.205 93.7071C770.596 94.0976 771.229 94.0976 771.619 93.7071L777.983 87.3431C778.374 86.9526 778.374 86.3195 777.983 85.9289C777.593 85.5384 776.96 85.5384 776.569 85.9289L770.912 91.5858L765.255 85.9289C764.865 85.5384 764.232 85.5384 763.841 85.9289C763.451 86.3195 763.451 86.9526 763.841 87.3431L770.205 93.7071ZM769.912 -1.09974e-07L769.912 93L771.912 93L771.912 1.09974e-07L769.912 -1.09974e-07Z" fill="#3395FC"/>
<path d="M93.744 184.16C94.1346 183.77 94.1346 183.137 93.744 182.746L87.3801 176.382C86.9895 175.992 86.3564 175.992 85.9659 176.382C85.5753 176.773 85.5753 177.406 85.9659 177.797L91.6227 183.453L85.9659 189.11C85.5753 189.501 85.5753 190.134 85.9659 190.524C86.3564 190.915 86.9895 190.915 87.3801 190.524L93.744 184.16ZM0 184.453L93.0369 184.453V182.453L0 182.453L0 184.453Z" fill="#3395FC"/>
</svg>
